# xmcd
#
# Track frame offsets:
# 150
# 18442
# 40547
# 56300
# 71585
# 95355
# 112292
# 130112
# 150452
# 180377
# 201432
# 221525
# 239247
# 258420
# 275252
# 292960
#
# Disc length: 4171 seconds
#
#
# Revision: 0
# Processed by: cddbd v1.5.2PL0 Copyright (c) Steve Scherf et al.
# Submitted via: FreeRIP 2.945 
#
DISCID=e5104910
DTITLE=Samitha Mudunkotuwa - Muthu Kumari
DYEAR=2000
DGENRE=other
TTITLE0=Pichcha mal
TTITLE1=Sanda Mama Nam
TTITLE2=Muthu Kumari
TTITLE3=Obama Avilu
TTITLE4=Sanda Eliya Galai
TTITLE5=Ira Paya
TTITLE6=Handa Panak se
TTITLE7=Bala Bilinde
TTITLE8=Madura Wasanthe
TTITLE9=Mal Nathi
TTITLE10=Sinaha Pirunu
TTITLE11=Eka Nillen
TTITLE12=Handa Wala
TTITLE13=Lipa Langa
TTITLE14=Raga Thale
TTITLE15=Amma Ro Ro
EXTD=
EXTT0=
EXTT1=
EXTT2=
EXTT3=
EXTT4=
EXTT5=
EXTT6=
EXTT7=
EXTT8=
EXTT9=
EXTT10=
EXTT11=
EXTT12=
EXTT13=
EXTT14=
EXTT15=
PLAYORDER=
